<svg width="22" height="22" viewBox="0 0 22 22" fill="none" xmlns="http://www.w3.org/2000/svg">
<g clip-path="url(#clip0_81_3001)">
<path d="M5.53942 16.0381L4.18 17.4177C1.6225 15.4001 0 12.4557 0 9.16675C0 5.87775 1.6225 2.93341 4.18092 0.916748L5.54033 2.29541C3.40725 3.9775 2.05242 6.43141 2.05242 9.16675C2.05242 11.9021 3.40725 14.356 5.53942 16.0381ZM13.75 9.16675C13.75 7.64783 12.518 6.41675 11 6.41675C9.482 6.41675 8.25 7.64783 8.25 9.16675C8.25 10.3621 9.01817 11.3695 10.0833 11.7481V21.0834H11.9167V11.7481C12.9818 11.3695 13.75 10.3621 13.75 9.16675ZM6.15817 9.16675C6.15817 7.525 6.97125 6.05191 8.25 5.04358L6.89242 3.66675C5.18742 5.0115 4.10575 6.97408 4.10575 9.16675C4.10575 11.3594 5.18742 13.322 6.89242 14.6667L8.25 13.2899C6.97033 12.2816 6.15817 10.8085 6.15817 9.16675ZM17.82 0.916748L16.4606 2.29541C18.5928 3.9775 19.9476 6.43141 19.9476 9.16675C19.9476 11.9021 18.5928 14.356 16.4606 16.0381L17.82 17.4177C20.3775 15.4001 22 12.4557 22 9.16675C22 5.87775 20.3775 2.93341 17.82 0.916748ZM15.1076 3.66675L13.75 5.04358C15.0297 6.05283 15.8418 7.525 15.8418 9.16675C15.8418 10.8085 15.0297 12.2816 13.75 13.2899L15.1076 14.6667C16.8126 13.322 17.8943 11.3594 17.8943 9.16675C17.8943 6.97408 16.8135 5.0115 15.1076 3.66675Z" fill="black"/>
</g>
<defs>
<clipPath id="clip0_81_3001">
<rect width="22" height="22" fill="white"/>
</clipPath>
</defs>
</svg>
