<svg width="241" height="368" viewBox="0 0 241 368" fill="none" xmlns="http://www.w3.org/2000/svg">
<path d="M-35.6654 319.476C-35.6654 319.476 -106.355 205.914 -1.96989 211.962C1.18716 212.141 4.30535 212.781 7.26309 213.902C16.518 217.434 42.3458 223.089 50.8581 181.094C51.424 178.312 51.5916 175.474 51.5603 172.629C51.4882 165.685 55.6733 147.152 99.3951 135.498C127.052 128.135 153.934 118.203 180.048 106.665C186.279 103.916 192.541 100.997 198.003 96.9018C203.3 92.9223 207.522 87.5528 212.152 82.8465C219.788 75.1012 229.134 67.2327 235 58" stroke="#FF8800" stroke-opacity="0.25" stroke-width="10" stroke-linecap="round" stroke-linejoin="round"/>
<path d="M234.798 57.3357L198.908 54.7643" stroke="#FF8800" stroke-opacity="0.25" stroke-width="10" stroke-linecap="round" stroke-linejoin="round"/>
<path d="M235.088 57.7467L229.314 93.2633" stroke="#FF8800" stroke-opacity="0.25" stroke-width="10" stroke-linecap="round" stroke-linejoin="round"/>
</svg>
