<svg width="279" height="275" viewBox="0 0 279 275" fill="none" xmlns="http://www.w3.org/2000/svg">
<path d="M126.938 192.189C125.946 207.893 127.148 228.493 135.965 250.199C137.542 254.077 139.239 257.704 141.026 261.125C140.996 261.612 140.906 262.069 140.771 262.57C140.08 265.18 138.518 267.422 136.46 269.162H116.965C114.216 264.841 109.68 257.1 105.865 246.586C101.779 235.32 100.593 226.281 99.6468 218.997C98.5203 210.297 97.7093 198.441 98.8808 184.285" fill="#FF8800"/>
<path d="M141.027 261.125C140.996 261.612 140.906 262.069 140.771 262.57C140.08 265.18 138.518 267.422 136.46 269.162C134.673 270.754 132.525 271.949 130.272 272.745C125.436 274.456 120.209 274.618 115.087 274.736C110.777 274.854 106.346 274.957 102.215 273.718C98.0548 272.524 94.1495 269.766 92.7227 265.741C91.1906 261.361 92.9482 256.348 95.9672 252.794C98.5355 249.786 102.035 247.677 105.865 246.571C110.296 245.259 115.147 245.318 119.458 246.969L130.302 247.987C132.39 248.164 134.328 248.975 135.965 250.199C139.374 252.691 141.492 256.982 141.027 261.125Z" fill="#FF8800"/>
<path d="M193.566 261.125C193.536 261.612 193.445 262.069 193.31 262.57C192.619 265.18 191.057 267.422 189 269.162C187.212 270.754 185.064 271.949 182.811 272.745C177.975 274.456 172.748 274.618 167.627 274.736C163.316 274.854 158.885 274.957 154.754 273.718C150.594 272.524 146.689 269.766 145.262 265.741C143.73 261.361 145.487 256.348 148.506 252.794C151.075 249.786 154.574 247.677 158.404 246.571C162.835 245.259 167.686 245.318 171.997 246.969L182.841 247.987C184.929 248.164 186.867 248.975 188.504 250.199C191.913 252.691 194.031 256.982 193.566 261.125Z" fill="#FF8800"/>
<path d="M172.508 19.0882C176.728 14.7824 188.143 3.42813 205.777 0.626436C228.456 -2.97153 246.33 10.0785 249.529 12.1871C275.198 29.1448 283.248 63.8711 276.97 92.2567C270.812 120.111 251.917 145.356 229.147 162.579C217.567 171.353 204.56 178.328 190.697 182.914C150.414 196.229 103.116 188.547 70.6285 161.621C38.1407 134.695 22.505 88.9537 33.7699 48.7272C37.2695 36.2228 43.4879 23.9838 53.8515 15.9326C68.1203 4.85848 90.004 3.22171 106.255 10.5946C133.832 23.099 136.64 58.6069 148.311 57.1618C156.797 56.1148 154.514 37.4614 172.508 19.0882Z" fill="#FF8800"/>
<path d="M129.776 93.7165C133.634 93.7165 136.761 90.6466 136.761 86.8597C136.761 83.0728 133.634 80.0029 129.776 80.0029C125.919 80.0029 122.792 83.0728 122.792 86.8597C122.792 90.6466 125.919 93.7165 129.776 93.7165Z" fill="#F9EEE8"/>
<path d="M161.799 93.7165C165.656 93.7165 168.783 90.6466 168.783 86.8597C168.783 83.0728 165.656 80.0029 161.799 80.0029C157.941 80.0029 154.815 83.0728 154.815 86.8597C154.815 90.6466 157.941 93.7165 161.799 93.7165Z" fill="#F9EEE8"/>
<path d="M136.716 117.531C140.486 119.728 145.082 120.495 149.392 119.669C153.703 118.843 157.653 116.425 160.312 112.989" stroke="#F9EEE8" stroke-width="3" stroke-linecap="round" stroke-linejoin="round"/>
<path d="M154.949 109.45C157.563 109.273 160.282 110.188 162.144 111.898C164.006 113.609 164.968 116.056 164.697 118.386" stroke="#F9EEE8" stroke-width="3" stroke-linecap="round" stroke-linejoin="round"/>
<path d="M265.45 115.643C266.186 124.683 266.231 138.691 261.71 154.971C257.054 171.722 249.469 184.034 244.032 191.496C238.054 189.874 232.076 188.237 226.098 186.615C231.521 178.475 238.46 166.03 242.981 149.677" fill="#FF8800"/>
<path d="M231.085 185.701C226.939 183.194 221.562 182.737 217.041 184.506C214.173 185.627 211.514 187.809 210.838 190.773C210.192 193.56 211.379 196.406 212.701 198.957C214.578 202.555 216.861 206.035 220.06 208.571C223.26 211.108 227.495 212.612 231.535 211.83C234.644 211.226 237.348 209.368 239.661 207.259C242.83 204.369 245.579 200.697 245.984 196.465C246.39 192.233 243.716 187.544 239.451 186.807" fill="#FF8800"/>
<path d="M102.726 126.246C95.862 132.321 84.5668 140.888 68.6609 147.273C52.2893 153.85 37.7354 155.428 28.3781 155.752C26.05 150.104 23.7217 144.457 21.4087 138.809C31.2917 138.072 45.5755 135.904 61.5415 129.475" fill="#FF8800"/>
<path d="M25.1938 142.142C24.6982 137.379 21.7843 132.926 17.6088 130.478C14.9503 128.929 11.571 128.192 8.76227 129.46C6.11879 130.655 4.52649 133.309 3.29487 135.889C1.53755 139.532 0.11076 143.439 0.00562139 147.465C-0.0995171 151.505 1.26714 155.723 4.36121 158.392C6.73434 160.441 9.88849 161.414 12.9976 161.945C17.2632 162.653 21.9045 162.565 25.5693 160.294C29.2342 158.023 31.3971 153.098 29.3994 149.338" fill="#FF8800"/>
<path d="M179.973 190.876C178.651 206.758 179.492 227.918 188.504 250.199C190.066 254.077 191.778 257.719 193.566 261.125C193.536 261.612 193.445 262.069 193.31 262.57C192.619 265.18 191.057 267.422 189 269.162H169.504C166.755 264.841 162.219 257.1 158.404 246.586C154.229 235.07 153.027 225.691 152.186 218.982C150.984 209.427 150.879 201.184 151.105 194.828" fill="#FF8800"/>
</svg>
