<svg class="bras" width="376" height="380" viewBox="0 0 376 380" fill="none" xmlns="http://www.w3.org/2000/svg">
        <path d="M385.703 261.427L341.114 97.1132C341.114 97.1132 321.202 77.4056 321.977 103.039C322.849 132.263 351.709 198.976 360.156 249.13C363.612 269.634 367.313 293.371 356.898 319.941C353.949 327.449 343.196 354.908 315.104 369.525C270.345 392.824 222.015 362.516 219.645 360.971C219.645 360.971 193.712 336.569 187.823 309.971C181.946 283.374 164.055 239.448 164.055 239.448C164.055 239.448 159.946 227.306 119.318 239.154L97.3724 174.708C97.3724 174.708 164.204 143.934 189.237 163.662C214.27 183.403 243.439 211.084 246.885 255.367C250.317 299.65 274.11 295.617 274.11 295.617C274.11 295.617 302.502 299.993 283.763 245.356C265.025 190.719 225.249 73.0374 261.855 33.6595C298.461 -5.70518 329.615 3.35709 329.615 3.35709C329.615 3.35709 372.933 5.03839 387.178 37.2898C401.422 69.5413 385.703 261.414 385.703 261.414L385.703 261.427Z" fill="#FF8800"/>
        <path d="M80.5531 248.86L49.5125 254.92C49.5125 254.92 37.181 251.328 42.3355 240.058C42.3355 240.058 19.1856 235.37 31.6862 225.372C31.6862 225.372 18.4069 224.353 27.5209 211.619C27.5209 211.619 -26.7684 215.877 21.5178 196.219L60.9513 185.959C60.9513 185.959 11.8218 153.877 67.1382 165.319C102.094 172.557 102.146 174.885 102.146 174.885L120.784 238.712L80.5531 248.86Z" fill="#FF8800"/>
        <path d="M41.5765 240.186C41.8527 238.631 42.1291 237.051 42.7637 235.605C43.3982 234.16 44.4179 232.81 45.8322 232.114C47.3665 231.366 49.1748 231.431 50.8623 231.669C52.5364 231.906 54.2624 232.343 55.5318 233.468C57.0788 234.835 57.6627 237.046 57.5561 239.107C57.4494 241.168 56.7183 243.144 56.0007 245.081" stroke="white" stroke-width="2" stroke-miterlimit="10"/>
        <path d="M32.2063 225.149C34.335 223.008 36.6357 221.002 39.3048 219.597C41.9738 218.204 45.0642 217.453 48.0399 217.965C51.0155 218.477 53.8226 220.357 55.0146 223.131C56.2066 225.905 55.5048 229.491 53.099 231.298" stroke="white" stroke-width="2" stroke-miterlimit="10"/>
        <path d="M26.0418 212.062C28.2796 209.51 28.2537 207.382 31.1775 205.672C34.1013 203.962 36.1017 203.124 39.4774 203.479C42.8531 203.834 46.1394 205.651 47.8357 208.588C49.5454 211.511 49.3992 215.54 47.1615 218.079" stroke="white" stroke-width="2" stroke-miterlimit="10"/>
        <path d="M61.5068 186.414C60.5253 192.087 67.3921 197.492 71.8232 201.165C76.2543 204.838 81.8004 206.829 87.2138 208.753" stroke="white" stroke-width="2" stroke-miterlimit="10"/>
      </svg>