<svg width="361" height="297" viewBox="0 0 361 297" fill="none" xmlns="http://www.w3.org/2000/svg">
<path d="M219.768 54.4467C226.121 49.7639 243.24 37.4737 266.457 37.4755C296.317 37.485 316.371 57.9582 320.011 61.33C349.202 88.434 351.92 134.822 337.658 170.106C323.666 204.731 293.918 233.385 260.96 250.91C244.195 259.842 225.994 266.164 207.22 269.233C152.667 278.138 93.7194 258.554 57.9689 217.211C22.2183 175.868 12.1897 113.736 35.4361 64.218C42.6597 48.8249 53.3097 34.3306 68.3571 26.0804C89.0722 14.7356 117.483 17.1088 136.701 29.9358C169.313 51.6933 165.14 98.0142 180.416 98.5426C191.524 98.9317 192.68 74.4324 219.768 54.4467Z" fill="#FF8800"/>
<path d="M148.534 141.802C153.469 142.585 158.147 139.261 158.983 134.378C159.818 129.496 156.495 124.903 151.56 124.12C146.625 123.337 141.947 126.661 141.112 131.544C140.276 136.426 143.599 141.019 148.534 141.802Z" fill="#F9EEE8"/>
<path d="M189.664 148.455C194.599 149.238 199.277 145.914 200.113 141.032C200.948 136.149 197.625 131.556 192.691 130.774C187.756 129.991 183.077 133.314 182.241 138.197C181.406 143.08 184.729 147.672 189.664 148.455Z" fill="#F9EEE8"/>
<path d="M152.293 175.431L174.179 178.43" stroke="#F9EEE8" stroke-width="5" stroke-linecap="round" stroke-linejoin="round"/>
</svg>
