<svg width="22" height="22" viewBox="0 0 22 22" fill="none" xmlns="http://www.w3.org/2000/svg">
<g clip-path="url(#clip0_81_3003)">
<path d="M11 0C4.92507 0 0 4.92485 0 11C0 17.0752 4.92507 22 11 22C17.0749 22 22 17.0752 22 11C22 4.92485 17.0749 0 11 0ZM5.77874 15.5852H2.78292V14.6775H5.77874V15.5852ZM5.77874 14.4054H2.78292V13.4971H5.77874V14.4054ZM5.77874 13.2252H2.78292V12.3171H5.77874V13.2252ZM5.77874 12.0445H2.78292V11.1368H5.77874V12.0445ZM5.77874 10.8641H2.78292V9.95615H5.77874V10.8641ZM9.1385 15.5852H6.14222V14.6775H9.1385V15.5852ZM9.1385 14.4054H6.14222V13.4971H9.1385V14.4054ZM9.1385 13.2252H6.14222V12.3171H9.1385V13.2252ZM12.498 15.5852H9.50198V14.6775H12.4983L12.498 15.5852ZM12.498 14.4054H9.50198V13.4971H12.4983L12.498 14.4054ZM12.498 13.2252H9.50198V12.3171H12.4983L12.498 13.2252ZM12.498 12.0445H9.50198V11.1368H12.4983L12.498 12.0445ZM12.498 10.8641H9.50198V9.95615H12.4983L12.498 10.8641ZM12.498 9.6836H9.50198V8.77569H12.4983L12.498 9.6836ZM12.498 8.50359H9.50198V7.59546H12.4983L12.498 8.50359ZM15.8573 15.5852H12.8613V14.6775H15.8576L15.8573 15.5852ZM15.8573 14.4054H12.8613V13.4971H15.8576L15.8573 14.4054ZM15.8573 13.2252H12.8613V12.3171H15.8576L15.8573 13.2252ZM15.8573 12.0445H12.8613V11.1368H15.8576L15.8573 12.0445ZM15.8573 10.8641H12.8613V9.95615H15.8576L15.8573 10.8641ZM19.2171 15.5852H16.2208V14.6775H19.2169L19.2171 15.5852ZM19.2171 14.4054H16.2208V13.4971H19.2169L19.2171 14.4054ZM19.2171 13.2245H16.2208V12.3166H19.2169L19.2171 13.2245ZM19.2171 12.0445H16.2208V11.1362H19.2169L19.2171 12.0445ZM19.2171 10.8641H16.2208V9.95548H19.2169L19.2171 10.8641ZM19.2171 9.68338H16.2208V8.77569H19.2169L19.2171 9.68338ZM19.2171 8.50292H16.2208V7.59523H19.2169L19.2171 8.50292ZM16.2208 7.32268V6.41477H19.2169V7.32268H16.2208Z" fill="black"/>
</g>
<defs>
<clipPath id="clip0_81_3003">
<rect width="22" height="22" fill="white"/>
</clipPath>
</defs>
</svg>
