<svg width="71" height="61" viewBox="0 0 71 61" fill="none" xmlns="http://www.w3.org/2000/svg">
<path d="M1.87566 5.25689C-0.827845 13.6743 -1.8355 27.0777 7.52104 44.5882C8.09683 45.6658 9.66678 45.6835 10.2561 44.6103C13.9132 37.9329 23.0043 18.6603 15.2357 4.04242C12.2578 -1.56625 3.81444 -0.771323 1.87566 5.25689Z" fill="#FFA750"/>
<path d="M37.5115 12.7646C30.1252 17.7991 20.9801 27.7976 17.4714 47.2689C17.2554 48.4701 18.488 49.4241 19.6216 48.9294C26.675 45.8425 45.8739 36.056 48.8383 19.8262C49.9764 13.5992 42.806 9.16088 37.5115 12.7646Z" fill="#FFA750"/>
<path d="M62.0859 36.9967C53.1343 37.8004 40.152 42.071 27.3228 57.3115C26.5311 58.2522 27.1249 59.6786 28.3619 59.7935C36.0451 60.5222 57.6686 61.3038 68.3971 48.6203C72.5131 43.7536 68.5051 36.4181 62.0905 36.9967H62.0859Z" fill="#FFA750"/>
</svg>
