<svg width="139" height="194" viewBox="0 0 139 194" fill="none" xmlns="http://www.w3.org/2000/svg">
<path d="M11 57.2107C15.1603 44.2244 19.4378 30.6155 29.3112 21.0204C43.2351 6.75963 70.3064 6.95004 78.5025 26.587C84.4793 43.697 71.2878 59.7376 61.4511 73.1341C48.9042 88.7939 38.5767 105.743 30.908 124.318" stroke="#FFA750" stroke-opacity="0.25" stroke-width="21" stroke-linecap="round" stroke-linejoin="round"/>
<path d="M41.3526 151.982C41.3087 159.871 31.5818 164.06 24.9678 160.852C17.072 157.476 16.6325 147.082 24.4258 143.237C31.0837 139.574 41.338 143.757 41.3526 151.843V151.982Z" fill="#FFA750" fill-opacity="0.25"/>
<path d="M85 122.477C87.8338 113.631 90.7475 104.361 97.4729 97.8255C106.957 88.1116 125.397 88.2414 130.98 101.617C135.051 113.272 126.066 124.198 119.365 133.323C110.819 143.99 103.784 155.535 98.5605 168.187" stroke="#FF8800" stroke-opacity="0.25" stroke-width="14" stroke-linecap="round" stroke-linejoin="round"/>
<path d="M105.675 187.036C105.645 192.41 99.0196 195.263 94.5144 193.078C89.1361 190.778 88.8368 183.699 94.1452 181.079C98.6803 178.585 105.665 181.434 105.675 186.942V187.036Z" fill="#FF8800" fill-opacity="0.25"/>
<path d="M107 27.0733C108.447 22.5563 109.935 17.8228 113.369 14.4853C118.212 9.52507 127.628 9.59134 130.479 16.4216C132.558 22.3729 127.97 27.9522 124.548 32.6119C120.184 38.0587 116.592 43.954 113.925 50.4148" stroke="#FF8800" stroke-opacity="0.25" stroke-width="8" stroke-linecap="round" stroke-linejoin="round"/>
<path d="M117.558 60.0398C117.542 62.7837 114.159 64.2409 111.858 63.125C109.112 61.9506 108.959 58.3355 111.67 56.9979C113.986 55.7241 117.552 57.1788 117.558 59.9914V60.0398Z" fill="#FF8800" fill-opacity="0.25"/>
</svg>
