<svg width="175" height="78" viewBox="0 0 175 78" fill="none" xmlns="http://www.w3.org/2000/svg">
            <g clip-path="url(#clip0_0_1)">
            <path d="M0 54.282V16.8867C0 15.8113 0.881194 14.9388 1.96724 14.9388H6.32769C7.41374 14.9388 8.29493 15.8113 8.29493 16.8867V27.7495C8.29493 28.8249 9.17613 29.6974 10.2622 29.6974C11.3482 29.6974 12.2294 28.8249 12.2294 27.7495V16.8867C12.2294 15.8113 13.1106 14.9388 14.1967 14.9388H18.5571C19.6432 14.9388 20.5243 15.8113 20.5243 16.8867V54.282C20.5243 55.3574 19.6432 56.2299 18.5571 56.2299H14.1967C13.1106 56.2299 12.2294 55.3574 12.2294 54.282V39.4559C12.2294 38.3806 11.3482 37.508 10.2622 37.508C9.17613 37.508 8.29493 38.3806 8.29493 39.4559V54.282C8.29493 55.3574 7.41374 56.2299 6.32769 56.2299H1.96724C0.881194 56.2299 0 55.3574 0 54.282Z" fill="#FFA750"/>
            <path d="M34.0219 56.6034C31.4954 56.6034 29.4794 56.1333 27.9804 55.1964C26.4781 54.2563 25.4051 52.9041 24.758 51.1365C24.1109 49.369 23.7858 47.2408 23.7858 44.7553V30.6085C23.7858 27.3406 24.732 24.8648 26.6277 23.1842C28.5234 21.5035 31.128 20.6632 34.4479 20.6632C41.2731 20.6632 44.6841 23.9794 44.6841 30.6085V33.1648C44.6841 34.9195 44.6743 36.349 44.6548 37.4501C44.6353 38.5512 43.7378 39.4044 42.642 39.4044H34.2853C33.1733 39.4044 32.2725 40.2962 32.2725 41.3973V46.2073C32.2725 46.8319 32.3116 47.4469 32.3896 48.0489C32.4676 48.651 32.6465 49.1468 32.9229 49.5396C33.1993 49.9292 33.6447 50.1256 34.2625 50.1256C35.147 50.1256 35.6998 49.7457 35.9209 48.9891C36.142 48.2292 36.2526 47.2408 36.2526 46.0206V44.6362C36.2526 43.5351 37.1533 42.6433 38.2653 42.6433H42.6713C43.7833 42.6433 44.6841 43.5351 44.6841 44.6362C44.6841 47.2634 44.3556 49.4656 43.7021 51.2395C43.0452 53.0135 41.9397 54.3529 40.3854 55.2511C38.8279 56.1494 36.7078 56.6001 34.0252 56.6001L34.0219 56.6034ZM34.2365 35.2318C35.3486 35.2318 36.2493 34.34 36.2493 33.2389V30.4926C36.2493 29.2273 36.09 28.3162 35.7746 27.7592C35.4592 27.2054 34.9844 26.9253 34.3536 26.9253C33.674 26.9253 33.1505 27.1925 32.7766 27.7238C32.4059 28.255 32.2205 29.179 32.2205 30.4926V33.2389C32.2205 34.34 33.1212 35.2318 34.2333 35.2318H34.2365Z" fill="#FFA750"/>
            <path d="M57.502 56.6033C50.4882 56.6033 46.983 53.0844 46.983 46.0464V43.9118C46.983 43.548 47.2789 43.255 47.6463 43.255H54.8487C55.2161 43.255 55.512 43.548 55.512 43.9118V47.3825C55.512 48.1809 55.6681 48.8055 55.9868 49.2595C56.3022 49.7135 56.8094 49.9388 57.502 49.9388C58.7344 49.9388 59.349 49.0245 59.349 47.1958C59.349 45.6632 59.0238 44.5171 58.3767 43.7605C57.7296 43.0006 56.9395 42.2698 56.0063 41.5679L51.48 38.1198C50.059 37.0251 48.9762 35.8661 48.2348 34.6491C47.4935 33.4289 47.1228 31.7321 47.1228 29.5589C47.1228 27.5402 47.6073 25.8757 48.5795 24.5621C49.5518 23.2486 50.8394 22.2698 52.4425 21.6291C54.0455 20.9884 55.7787 20.6665 57.6418 20.6665C64.5288 20.6665 67.9723 24.0695 67.9723 30.8725C67.9723 31.2363 67.6764 31.5293 67.309 31.5293H59.8692C59.5018 31.5293 59.2059 31.2363 59.2059 30.8725V30.1932C59.2059 29.4881 59.0823 28.8088 58.8384 28.152C58.5946 27.4952 58.1166 27.1668 57.4045 27.1668C56.2046 27.1668 55.6031 27.7914 55.6031 29.0438C55.6031 30.2962 56.1071 31.3039 57.1183 32.0219L62.3795 35.821C64.0216 36.9929 65.4003 38.387 66.5123 39.9968C67.6244 41.6066 68.1837 43.7508 68.1837 46.4231C68.1837 49.7392 67.2309 52.2634 65.3287 54.0019C63.4265 55.7373 60.8154 56.6066 57.4988 56.6066L57.502 56.6033Z" fill="#FFA750"/>
            <path d="M77.7857 56.6034C76.1436 56.6034 74.8397 56.3071 73.8772 55.7115C72.9147 55.1191 72.1961 54.2949 71.7214 53.2486C71.2466 52.2022 70.9345 50.9723 70.7849 49.5654C70.6353 48.1584 70.5605 46.6484 70.5605 45.0386V29.7424C70.5605 27.038 71.045 24.8487 72.0173 23.1745C72.9895 21.5003 74.6349 20.6632 76.9565 20.6632C78.6766 20.6632 80.0001 21.027 80.9235 21.7547C81.1999 21.9736 81.46 22.2183 81.6974 22.4855C82.1754 23.0232 83.0664 22.7141 83.0664 21.9961V15.7051C83.0664 15.2801 83.4143 14.9388 83.8402 14.9388H90.9158C91.345 14.9388 91.6897 15.2833 91.6897 15.7051V55.4604C91.6897 55.8854 91.3418 56.2267 90.9158 56.2267H83.8402C83.411 56.2267 83.0664 55.8822 83.0664 55.4604V55.4443C83.0664 54.7135 82.1526 54.4108 81.6812 54.971C81.5218 55.161 81.356 55.3381 81.1837 55.499C80.4033 56.2331 79.2684 56.6001 77.7824 56.6001L77.7857 56.6034ZM81.0308 50.0354C81.8372 50.0354 82.377 49.7135 82.6534 49.0728C82.9298 48.4321 83.0664 47.2827 83.0664 45.6246V30.821C83.0664 29.9936 82.9428 29.1758 82.6989 28.3709C82.455 27.566 81.912 27.1636 81.0763 27.1636C80.1594 27.1636 79.5838 27.5467 79.3465 28.3129C79.1091 29.0792 78.992 29.9163 78.992 30.8242V45.6278C78.992 48.5673 79.6716 50.0386 81.0308 50.0386V50.0354Z" fill="#FFA750"/>
            <path d="M94.9153 52.7334V24.5364C94.9153 22.6046 96.4956 21.0399 98.4466 21.0399H99.8676C101.819 21.0399 103.399 22.6046 103.399 24.5364V52.7334C103.399 54.6652 101.819 56.2299 99.8676 56.2299H98.4466C96.4956 56.2299 94.9153 54.6652 94.9153 52.7334Z" fill="#FFA750"/>
            <path d="M151.946 4.16613C152.86 3.22601 155.331 0.746939 159.148 0.13522C164.058 -0.650356 167.928 2.19897 168.62 2.65937C174.177 6.36188 175.92 13.944 174.561 20.1417C173.228 26.2234 169.137 31.7353 164.208 35.4958C161.701 37.4115 158.885 38.9343 155.884 39.9356C147.163 42.8429 136.923 41.1655 129.89 35.2865C122.857 29.4076 119.472 19.4205 121.91 10.6375C122.668 7.90727 124.014 5.23503 126.258 3.47714C129.347 1.05924 134.085 0.701865 137.603 2.31165C143.573 5.04185 144.181 12.7946 146.707 12.4791C148.545 12.2505 148.05 8.17772 151.946 4.16613Z" fill="#FF8800"/>
            <path d="M142.695 20.4604C143.53 20.4604 144.207 19.7901 144.207 18.9633C144.207 18.1365 143.53 17.4662 142.695 17.4662C141.86 17.4662 141.183 18.1365 141.183 18.9633C141.183 19.7901 141.86 20.4604 142.695 20.4604Z" fill="#F9EEE8"/>
            <path d="M149.624 20.4604C150.459 20.4604 151.136 19.7901 151.136 18.9633C151.136 18.1365 150.459 17.4662 149.624 17.4662C148.789 17.4662 148.112 18.1365 148.112 18.9633C148.112 19.7901 148.789 20.4604 149.624 20.4604Z" fill="#F9EEE8"/>
            <path d="M144.197 25.66C145.013 26.1397 146.008 26.3072 146.942 26.1269C147.875 25.9466 148.73 25.4185 149.306 24.6684" stroke="#F9EEE8" stroke-linecap="round" stroke-linejoin="round"/>
            <path d="M148.141 23.8957C148.707 23.8571 149.296 24.0567 149.699 24.4301C150.102 24.8036 150.31 25.3381 150.252 25.8467" stroke="#F9EEE8" stroke-linecap="round" stroke-linejoin="round"/>
            <path d="M142.08 41.9607C141.866 45.3896 142.126 49.8873 144.035 54.6265C144.376 55.4733 144.743 56.2653 145.13 57.0122C145.124 57.1185 145.104 57.2183 145.075 57.3278C144.926 57.8976 144.587 58.387 144.142 58.7669H139.921C139.326 57.8236 138.344 56.1333 137.518 53.8377C136.634 51.378 136.377 49.4044 136.172 47.8139C135.928 45.9144 135.753 43.3258 136.006 40.235" fill="#FF8800"/>
            <path d="M145.13 57.0122C145.124 57.1185 145.104 57.2183 145.075 57.3278C144.926 57.8976 144.587 58.387 144.142 58.7669C143.755 59.1146 143.29 59.3754 142.802 59.5493C141.755 59.9227 140.624 59.9582 139.515 59.9839C138.582 60.0097 137.622 60.0322 136.728 59.7618C135.827 59.501 134.982 58.8989 134.673 58.02C134.341 57.0638 134.722 55.9691 135.375 55.1932C135.932 54.5364 136.689 54.076 137.518 53.8345C138.478 53.548 139.528 53.5609 140.461 53.9214L142.809 54.1436C143.261 54.1822 143.68 54.3593 144.035 54.6265C144.773 55.1706 145.231 56.1075 145.13 57.0122Z" fill="#FF8800"/>
            <path d="M153.562 41.6742C153.276 45.1417 153.458 49.7618 155.409 54.6265C155.747 55.4733 156.118 56.2685 156.505 57.0122C156.498 57.1185 156.479 57.2183 156.449 57.3278C156.3 57.8976 155.962 58.387 155.516 58.7669H151.296C150.701 57.8236 149.719 56.1333 148.893 53.8377C147.989 51.3232 147.729 49.2756 147.546 47.8107C147.286 45.7244 147.264 43.9247 147.312 42.537" fill="#FF8800"/>
            <path d="M156.505 57.0122C156.498 57.1185 156.479 57.2183 156.449 57.3278C156.3 57.8976 155.962 58.387 155.516 58.7669C155.129 59.1146 154.664 59.3754 154.176 59.5493C153.129 59.9227 151.998 59.9582 150.889 59.9839C149.956 60.0097 148.997 60.0322 148.102 59.7618C147.202 59.501 146.356 58.8989 146.047 58.02C145.716 57.0638 146.096 55.9691 146.75 55.1932C147.306 54.5364 148.063 54.076 148.893 53.8345C149.852 53.548 150.902 53.5609 151.835 53.9214L154.183 54.1436C154.635 54.1822 155.054 54.3593 155.409 54.6265C156.147 55.1706 156.605 56.1075 156.505 57.0122Z" fill="#FF8800"/>
            <path d="M172.067 25.2479C172.226 27.2215 172.236 30.2801 171.257 33.8345C170.249 37.492 168.607 40.1803 167.43 41.8094C166.136 41.4553 164.842 41.0979 163.548 40.7437C164.722 38.9665 166.224 36.2492 167.203 32.6787" fill="#FF8800"/>
            <path d="M164.627 40.5441C163.73 39.9968 162.566 39.897 161.587 40.2833C160.966 40.528 160.39 41.0045 160.244 41.6516C160.104 42.2601 160.361 42.8815 160.647 43.4385C161.054 44.2241 161.548 44.9839 162.241 45.5377C162.933 46.0914 163.85 46.4198 164.725 46.2492C165.398 46.1172 165.983 45.7115 166.484 45.2511C167.17 44.6201 167.765 43.8184 167.853 42.8944C167.941 41.9704 167.362 40.9466 166.438 40.7856" fill="#FF8800"/>
            <path d="M113.229 56.6034C111.255 56.6034 109.749 56.1494 108.715 55.2415C107.681 54.3336 106.972 53.0908 106.595 51.5132C106.215 49.9324 106.026 48.1423 106.026 46.1397C106.026 43.9987 106.241 42.2408 106.667 40.8725C107.093 39.5042 107.824 38.3806 108.858 37.5048C109.892 36.6291 111.32 35.8854 113.134 35.2769L118.064 33.6059C118.262 33.5383 118.392 33.3548 118.392 33.1487V29.8809C118.392 27.9878 117.768 27.0412 116.519 27.0412C115.381 27.0412 114.812 27.8075 114.812 29.34V30.9691C114.812 31.2363 114.594 31.452 114.324 31.452H107.031C106.764 31.452 106.543 31.2395 106.543 30.9755C106.543 30.9755 106.543 30.9723 106.543 30.9691V30.2994C106.543 26.7965 107.376 24.3142 109.044 22.8526C110.709 21.3909 113.352 20.66 116.968 20.66C118.864 20.66 120.561 20.9916 122.063 21.6581C123.562 22.3245 124.752 23.3033 125.63 24.6008C126.508 25.8983 126.944 27.5016 126.944 29.4108V55.7437C126.944 56.0109 126.726 56.2267 126.456 56.2267H118.997C118.727 56.2267 118.509 56.0109 118.509 55.7437V54.3818C118.509 53.8989 117.872 53.7154 117.612 54.1243C117.29 54.633 116.909 55.0644 116.471 55.425C115.524 56.2073 114.441 56.5969 113.225 56.5969L113.229 56.6034ZM116.571 50.0837C117.267 50.0837 117.739 49.794 117.992 49.2144C118.246 48.6349 118.373 48.0103 118.373 47.3374V38.2775C118.373 37.9234 117.996 37.6851 117.677 37.8429C116.838 38.255 116.162 38.7412 115.651 39.3046C115.004 40.0161 114.679 41.0592 114.679 42.4372V46.9639C114.679 49.0438 115.31 50.0837 116.575 50.0837H116.571Z" fill="#FFA750"/>
            <path d="M99.7538 13.6252C99.9001 13.4739 100.297 13.0779 100.908 12.9781C101.695 12.8525 102.316 13.3097 102.427 13.3838C103.318 13.9762 103.597 15.1932 103.379 16.188C103.165 17.1635 102.508 18.0457 101.718 18.651C101.315 18.9569 100.866 19.2015 100.381 19.3625C98.9832 19.8294 97.3411 19.5589 96.2128 18.6188C95.0845 17.6755 94.5414 16.0753 94.9349 14.6652C95.0552 14.2273 95.2731 13.7991 95.6307 13.5158C96.125 13.1294 96.8859 13.0715 97.4517 13.329C98.4076 13.7669 98.5052 15.0097 98.9116 14.9581C99.2075 14.9227 99.1262 14.2692 99.7506 13.6252H99.7538Z" fill="#FF8800"/>
            <path d="M119.833 32.434C119.579 31.4198 118.821 30.5441 117.846 30.1385C117.228 29.8809 116.48 29.8229 115.918 30.1803C115.388 30.5151 115.128 31.1397 114.942 31.7321C114.676 32.5725 114.49 33.4578 114.591 34.3336C114.692 35.2093 115.115 36.0818 115.859 36.5647C116.431 36.9382 117.137 37.0541 117.82 37.0734C118.756 37.1024 119.748 36.9414 120.464 36.3426C121.179 35.7437 121.491 34.6137 120.948 33.8603" fill="#FF8800"/>
            <path d="M119.803 32.4404C119.982 32.4308 120.142 32.3149 120.239 32.1668C120.337 32.0187 120.379 31.8416 120.402 31.6677C120.473 31.0979 120.34 30.5023 120.034 30.0129C119.81 29.6555 119.433 29.3336 119.01 29.3754C118.643 29.4108 118.35 29.7231 118.226 30.0676C118.103 30.4121 118.109 30.7888 118.122 31.1526" fill="#FF8800"/>
            </g>
            <path d="M0.99 76V68.58H1.7V76H0.99ZM5.84555 76.05C5.39888 76.05 5.00888 75.9667 4.67555 75.8C4.34221 75.6333 4.08221 75.3833 3.89555 75.05C3.71555 74.7167 3.62555 74.3 3.62555 73.8V70.75H4.33555V73.72C4.33555 74.28 4.47221 74.7033 4.74555 74.99C5.02555 75.27 5.41555 75.41 5.91555 75.41C6.28221 75.41 6.59888 75.3367 6.86555 75.19C7.13888 75.0367 7.34555 74.8167 7.48555 74.53C7.63221 74.2433 7.70555 73.9 7.70555 73.5V70.75H8.41555V76H7.73555V74.56L7.84555 74.82C7.67888 75.2067 7.41888 75.51 7.06555 75.73C6.71888 75.9433 6.31221 76.05 5.84555 76.05ZM12.0543 76.05C11.561 76.05 11.181 75.9167 10.9143 75.65C10.6476 75.3833 10.5143 75.0067 10.5143 74.52V69.59H11.2243V74.48C11.2243 74.7867 11.301 75.0233 11.4543 75.19C11.6143 75.3567 11.841 75.44 12.1343 75.44C12.4476 75.44 12.7076 75.35 12.9143 75.17L13.1643 75.68C13.0243 75.8067 12.8543 75.9 12.6543 75.96C12.461 76.02 12.261 76.05 12.0543 76.05ZM9.5743 71.34V70.75H12.8243V71.34H9.5743ZM15.9801 76.05C15.4867 76.05 15.1067 75.9167 14.8401 75.65C14.5734 75.3833 14.4401 75.0067 14.4401 74.52V69.59H15.1501V74.48C15.1501 74.7867 15.2267 75.0233 15.3801 75.19C15.5401 75.3567 15.7667 75.44 16.0601 75.44C16.3734 75.44 16.6334 75.35 16.8401 75.17L17.0901 75.68C16.9501 75.8067 16.7801 75.9 16.5801 75.96C16.3867 76.02 16.1867 76.05 15.9801 76.05ZM13.5001 71.34V70.75H16.7501V71.34H13.5001ZM20.427 76.05C19.8804 76.05 19.4004 75.9367 18.987 75.71C18.5737 75.4767 18.2504 75.16 18.017 74.76C17.7837 74.3533 17.667 73.89 17.667 73.37C17.667 72.85 17.777 72.39 17.997 71.99C18.2237 71.59 18.5304 71.2767 18.917 71.05C19.3104 70.8167 19.7504 70.7 20.237 70.7C20.7304 70.7 21.167 70.8133 21.547 71.04C21.9337 71.26 22.237 71.5733 22.457 71.98C22.677 72.38 22.787 72.8433 22.787 73.37C22.787 73.4033 22.7837 73.44 22.777 73.48C22.777 73.5133 22.777 73.55 22.777 73.59H18.207V73.06H22.397L22.117 73.27C22.117 72.89 22.0337 72.5533 21.867 72.26C21.707 71.96 21.487 71.7267 21.207 71.56C20.927 71.3933 20.6037 71.31 20.237 71.31C19.877 71.31 19.5537 71.3933 19.267 71.56C18.9804 71.7267 18.757 71.96 18.597 72.26C18.437 72.56 18.357 72.9033 18.357 73.29V73.4C18.357 73.8 18.4437 74.1533 18.617 74.46C18.797 74.76 19.0437 74.9967 19.357 75.17C19.677 75.3367 20.0404 75.42 20.447 75.42C20.767 75.42 21.0637 75.3633 21.337 75.25C21.617 75.1367 21.857 74.9633 22.057 74.73L22.457 75.19C22.2237 75.47 21.9304 75.6833 21.577 75.83C21.2304 75.9767 20.847 76.05 20.427 76.05ZM29.0294 76.05C28.5094 76.05 28.0427 75.9367 27.6294 75.71C27.2227 75.4767 26.9027 75.16 26.6694 74.76C26.436 74.3533 26.3194 73.89 26.3194 73.37C26.3194 72.8433 26.436 72.38 26.6694 71.98C26.9027 71.58 27.2227 71.2667 27.6294 71.04C28.0427 70.8133 28.5094 70.7 29.0294 70.7C29.476 70.7 29.8794 70.7867 30.2394 70.96C30.5994 71.1333 30.8827 71.3933 31.0894 71.74L30.5594 72.1C30.3794 71.8333 30.156 71.6367 29.8894 71.51C29.6227 71.3833 29.3327 71.32 29.0194 71.32C28.646 71.32 28.3094 71.4067 28.0094 71.58C27.7094 71.7467 27.4727 71.9833 27.2994 72.29C27.126 72.5967 27.0394 72.9567 27.0394 73.37C27.0394 73.7833 27.126 74.1433 27.2994 74.45C27.4727 74.7567 27.7094 74.9967 28.0094 75.17C28.3094 75.3367 28.646 75.42 29.0194 75.42C29.3327 75.42 29.6227 75.3567 29.8894 75.23C30.156 75.1033 30.3794 74.91 30.5594 74.65L31.0894 75.01C30.8827 75.35 30.5994 75.61 30.2394 75.79C29.8794 75.9633 29.476 76.05 29.0294 76.05ZM34.5363 76.05C34.0296 76.05 33.5729 75.9367 33.1663 75.71C32.7663 75.4767 32.4496 75.16 32.2163 74.76C31.9829 74.3533 31.8663 73.89 31.8663 73.37C31.8663 72.8433 31.9829 72.38 32.2163 71.98C32.4496 71.58 32.7663 71.2667 33.1663 71.04C33.5663 70.8133 34.0229 70.7 34.5363 70.7C35.0563 70.7 35.5163 70.8133 35.9163 71.04C36.3229 71.2667 36.6396 71.58 36.8663 71.98C37.0996 72.38 37.2163 72.8433 37.2163 73.37C37.2163 73.89 37.0996 74.3533 36.8663 74.76C36.6396 75.16 36.3229 75.4767 35.9163 75.71C35.5096 75.9367 35.0496 76.05 34.5363 76.05ZM34.5363 75.42C34.9163 75.42 35.2529 75.3367 35.5463 75.17C35.8396 74.9967 36.0696 74.7567 36.2363 74.45C36.4096 74.1367 36.4963 73.7767 36.4963 73.37C36.4963 72.9567 36.4096 72.5967 36.2363 72.29C36.0696 71.9833 35.8396 71.7467 35.5463 71.58C35.2529 71.4067 34.9196 71.32 34.5463 71.32C34.1729 71.32 33.8396 71.4067 33.5463 71.58C33.2529 71.7467 33.0196 71.9833 32.8463 72.29C32.6729 72.5967 32.5863 72.9567 32.5863 73.37C32.5863 73.7767 32.6729 74.1367 32.8463 74.45C33.0196 74.7567 33.2529 74.9967 33.5463 75.17C33.8396 75.3367 34.1696 75.42 34.5363 75.42ZM41.3458 70.7C41.7724 70.7 42.1458 70.7833 42.4658 70.95C42.7924 71.11 43.0458 71.3567 43.2258 71.69C43.4124 72.0233 43.5058 72.4433 43.5058 72.95V76H42.7958V73.02C42.7958 72.4667 42.6558 72.05 42.3758 71.77C42.1024 71.4833 41.7158 71.34 41.2158 71.34C40.8424 71.34 40.5158 71.4167 40.2358 71.57C39.9624 71.7167 39.7491 71.9333 39.5958 72.22C39.4491 72.5 39.3758 72.84 39.3758 73.24V76H38.6658V70.75H39.3458V72.19L39.2358 71.92C39.4024 71.54 39.6691 71.2433 40.0358 71.03C40.4024 70.81 40.8391 70.7 41.3458 70.7ZM47.0836 76.05C46.5903 76.05 46.2103 75.9167 45.9436 75.65C45.6769 75.3833 45.5436 75.0067 45.5436 74.52V69.59H46.2536V74.48C46.2536 74.7867 46.3303 75.0233 46.4836 75.19C46.6436 75.3567 46.8703 75.44 47.1636 75.44C47.4769 75.44 47.7369 75.35 47.9436 75.17L48.1936 75.68C48.0536 75.8067 47.8836 75.9 47.6836 75.96C47.4903 76.02 47.2903 76.05 47.0836 76.05ZM44.6036 71.34V70.75H47.8536V71.34H44.6036ZM49.4861 76V70.75H50.1661V72.18L50.0961 71.93C50.2428 71.53 50.4894 71.2267 50.8361 71.02C51.1828 70.8067 51.6128 70.7 52.1261 70.7V71.39C52.0994 71.39 52.0728 71.39 52.0461 71.39C52.0194 71.3833 51.9928 71.38 51.9661 71.38C51.4128 71.38 50.9794 71.55 50.6661 71.89C50.3528 72.2233 50.1961 72.7 50.1961 73.32V76H49.4861ZM55.6028 76.05C55.0561 76.05 54.5761 75.9367 54.1628 75.71C53.7495 75.4767 53.4261 75.16 53.1928 74.76C52.9595 74.3533 52.8428 73.89 52.8428 73.37C52.8428 72.85 52.9528 72.39 53.1728 71.99C53.3995 71.59 53.7061 71.2767 54.0928 71.05C54.4861 70.8167 54.9261 70.7 55.4128 70.7C55.9061 70.7 56.3428 70.8133 56.7228 71.04C57.1095 71.26 57.4128 71.5733 57.6328 71.98C57.8528 72.38 57.9628 72.8433 57.9628 73.37C57.9628 73.4033 57.9595 73.44 57.9528 73.48C57.9528 73.5133 57.9528 73.55 57.9528 73.59H53.3828V73.06H57.5728L57.2928 73.27C57.2928 72.89 57.2095 72.5533 57.0428 72.26C56.8828 71.96 56.6628 71.7267 56.3828 71.56C56.1028 71.3933 55.7795 71.31 55.4128 71.31C55.0528 71.31 54.7295 71.3933 54.4428 71.56C54.1561 71.7267 53.9328 71.96 53.7728 72.26C53.6128 72.56 53.5328 72.9033 53.5328 73.29V73.4C53.5328 73.8 53.6195 74.1533 53.7928 74.46C53.9728 74.76 54.2195 74.9967 54.5328 75.17C54.8528 75.3367 55.2161 75.42 55.6228 75.42C55.9428 75.42 56.2395 75.3633 56.5128 75.25C56.7928 75.1367 57.0328 74.9633 57.2328 74.73L57.6328 75.19C57.3995 75.47 57.1061 75.6833 56.7528 75.83C56.4061 75.9767 56.0228 76.05 55.6028 76.05ZM62.0252 76V68.58H62.7352V76H62.0252ZM66.9407 76.05C66.394 76.05 65.914 75.9367 65.5007 75.71C65.0874 75.4767 64.764 75.16 64.5307 74.76C64.2974 74.3533 64.1807 73.89 64.1807 73.37C64.1807 72.85 64.2907 72.39 64.5107 71.99C64.7374 71.59 65.044 71.2767 65.4307 71.05C65.824 70.8167 66.264 70.7 66.7507 70.7C67.244 70.7 67.6807 70.8133 68.0607 71.04C68.4474 71.26 68.7507 71.5733 68.9707 71.98C69.1907 72.38 69.3007 72.8433 69.3007 73.37C69.3007 73.4033 69.2974 73.44 69.2907 73.48C69.2907 73.5133 69.2907 73.55 69.2907 73.59H64.7207V73.06H68.9107L68.6307 73.27C68.6307 72.89 68.5474 72.5533 68.3807 72.26C68.2207 71.96 68.0007 71.7267 67.7207 71.56C67.4407 71.3933 67.1174 71.31 66.7507 71.31C66.3907 71.31 66.0674 71.3933 65.7807 71.56C65.494 71.7267 65.2707 71.96 65.1107 72.26C64.9507 72.56 64.8707 72.9033 64.8707 73.29V73.4C64.8707 73.8 64.9574 74.1533 65.1307 74.46C65.3107 74.76 65.5574 74.9967 65.8707 75.17C66.1907 75.3367 66.554 75.42 66.9607 75.42C67.2807 75.42 67.5774 75.3633 67.8507 75.25C68.1307 75.1367 68.3707 74.9633 68.5707 74.73L68.9707 75.19C68.7374 75.47 68.444 75.6833 68.0907 75.83C67.744 75.9767 67.3607 76.05 66.9407 76.05ZM75.543 76.05C75.023 76.05 74.5564 75.9367 74.143 75.71C73.7364 75.4767 73.4164 75.16 73.183 74.76C72.9497 74.3533 72.833 73.89 72.833 73.37C72.833 72.8433 72.9497 72.38 73.183 71.98C73.4164 71.58 73.7364 71.2667 74.143 71.04C74.5564 70.8133 75.023 70.7 75.543 70.7C75.9897 70.7 76.393 70.7867 76.753 70.96C77.113 71.1333 77.3964 71.3933 77.603 71.74L77.073 72.1C76.893 71.8333 76.6697 71.6367 76.403 71.51C76.1364 71.3833 75.8464 71.32 75.533 71.32C75.1597 71.32 74.823 71.4067 74.523 71.58C74.223 71.7467 73.9864 71.9833 73.813 72.29C73.6397 72.5967 73.553 72.9567 73.553 73.37C73.553 73.7833 73.6397 74.1433 73.813 74.45C73.9864 74.7567 74.223 74.9967 74.523 75.17C74.823 75.3367 75.1597 75.42 75.533 75.42C75.8464 75.42 76.1364 75.3567 76.403 75.23C76.6697 75.1033 76.893 74.91 77.073 74.65L77.603 75.01C77.3964 75.35 77.113 75.61 76.753 75.79C76.393 75.9633 75.9897 76.05 75.543 76.05ZM78.9597 77.99C78.713 77.99 78.4764 77.95 78.2497 77.87C78.0297 77.79 77.8397 77.67 77.6797 77.51L78.0097 76.98C78.143 77.1067 78.2864 77.2033 78.4397 77.27C78.5997 77.3433 78.7764 77.38 78.9697 77.38C79.203 77.38 79.403 77.3133 79.5697 77.18C79.743 77.0533 79.9064 76.8267 80.0597 76.5L80.3997 75.73L80.4797 75.62L82.6397 70.75H83.3397L80.7097 76.63C80.563 76.97 80.3997 77.24 80.2197 77.44C80.0464 77.64 79.8564 77.78 79.6497 77.86C79.443 77.9467 79.213 77.99 78.9597 77.99ZM80.3597 76.15L77.9397 70.75H78.6797L80.8197 75.57L80.3597 76.15ZM87.0496 76.05C86.5896 76.05 86.1763 75.9467 85.8096 75.74C85.4429 75.5267 85.1529 75.22 84.9396 74.82C84.7263 74.42 84.6196 73.9367 84.6196 73.37C84.6196 72.7967 84.7263 72.3133 84.9396 71.92C85.1596 71.52 85.4529 71.2167 85.8196 71.01C86.1863 70.8033 86.5963 70.7 87.0496 70.7C87.5496 70.7 87.9963 70.8133 88.3896 71.04C88.7896 71.26 89.1029 71.57 89.3296 71.97C89.5563 72.37 89.6696 72.8367 89.6696 73.37C89.6696 73.8967 89.5563 74.3633 89.3296 74.77C89.1029 75.17 88.7896 75.4833 88.3896 75.71C87.9963 75.9367 87.5496 76.05 87.0496 76.05ZM84.3396 76V68.58H85.0496V72.3L84.9496 73.36L85.0196 74.42V76H84.3396ZM86.9996 75.42C87.3729 75.42 87.7063 75.3367 87.9996 75.17C88.2929 74.9967 88.5263 74.7567 88.6996 74.45C88.8729 74.1367 88.9596 73.7767 88.9596 73.37C88.9596 72.9567 88.8729 72.5967 88.6996 72.29C88.5263 71.9833 88.2929 71.7467 87.9996 71.58C87.7063 71.4067 87.3729 71.32 86.9996 71.32C86.6263 71.32 86.2896 71.4067 85.9896 71.58C85.6963 71.7467 85.4629 71.9833 85.2896 72.29C85.1229 72.5967 85.0396 72.9567 85.0396 73.37C85.0396 73.7767 85.1229 74.1367 85.2896 74.45C85.4629 74.7567 85.6963 74.9967 85.9896 75.17C86.2896 75.3367 86.6263 75.42 86.9996 75.42ZM93.347 76.05C92.8003 76.05 92.3203 75.9367 91.907 75.71C91.4936 75.4767 91.1703 75.16 90.937 74.76C90.7036 74.3533 90.587 73.89 90.587 73.37C90.587 72.85 90.697 72.39 90.917 71.99C91.1436 71.59 91.4503 71.2767 91.837 71.05C92.2303 70.8167 92.6703 70.7 93.157 70.7C93.6503 70.7 94.087 70.8133 94.467 71.04C94.8536 71.26 95.157 71.5733 95.377 71.98C95.597 72.38 95.707 72.8433 95.707 73.37C95.707 73.4033 95.7036 73.44 95.697 73.48C95.697 73.5133 95.697 73.55 95.697 73.59H91.127V73.06H95.317L95.037 73.27C95.037 72.89 94.9536 72.5533 94.787 72.26C94.627 71.96 94.407 71.7267 94.127 71.56C93.847 71.3933 93.5236 71.31 93.157 71.31C92.797 71.31 92.4736 71.3933 92.187 71.56C91.9003 71.7267 91.677 71.96 91.517 72.26C91.357 72.56 91.277 72.9033 91.277 73.29V73.4C91.277 73.8 91.3636 74.1533 91.537 74.46C91.717 74.76 91.9636 74.9967 92.277 75.17C92.597 75.3367 92.9603 75.42 93.367 75.42C93.687 75.42 93.9836 75.3633 94.257 75.25C94.537 75.1367 94.777 74.9633 94.977 74.73L95.377 75.19C95.1436 75.47 94.8503 75.6833 94.497 75.83C94.1503 75.9767 93.767 76.05 93.347 76.05ZM97.1521 76V70.75H97.8321V72.18L97.7621 71.93C97.9088 71.53 98.1554 71.2267 98.5021 71.02C98.8488 70.8067 99.2788 70.7 99.7921 70.7V71.39C99.7654 71.39 99.7388 71.39 99.7121 71.39C99.6854 71.3833 99.6588 71.38 99.6321 71.38C99.0788 71.38 98.6454 71.55 98.3321 71.89C98.0188 72.2233 97.8621 72.7 97.8621 73.32V76H97.1521ZM103.768 70.7C104.194 70.7 104.568 70.7833 104.888 70.95C105.214 71.11 105.468 71.3567 105.648 71.69C105.834 72.0233 105.928 72.4433 105.928 72.95V76H105.218V73.02C105.218 72.4667 105.078 72.05 104.798 71.77C104.524 71.4833 104.138 71.34 103.638 71.34C103.264 71.34 102.938 71.4167 102.658 71.57C102.384 71.7167 102.171 71.9333 102.018 72.22C101.871 72.5 101.798 72.84 101.798 73.24V76H101.088V68.58H101.798V72.19L101.658 71.92C101.824 71.54 102.091 71.2433 102.458 71.03C102.824 70.81 103.261 70.7 103.768 70.7ZM111.135 76V74.84L111.105 74.65V72.71C111.105 72.2633 110.979 71.92 110.725 71.68C110.479 71.44 110.109 71.32 109.615 71.32C109.275 71.32 108.952 71.3767 108.645 71.49C108.339 71.6033 108.079 71.7533 107.865 71.94L107.545 71.41C107.812 71.1833 108.132 71.01 108.505 70.89C108.879 70.7633 109.272 70.7 109.685 70.7C110.365 70.7 110.889 70.87 111.255 71.21C111.629 71.5433 111.815 72.0533 111.815 72.74V76H111.135ZM109.325 76.05C108.932 76.05 108.589 75.9867 108.295 75.86C108.009 75.7267 107.789 75.5467 107.635 75.32C107.482 75.0867 107.405 74.82 107.405 74.52C107.405 74.2467 107.469 74 107.595 73.78C107.729 73.5533 107.942 73.3733 108.235 73.24C108.535 73.1 108.935 73.03 109.435 73.03H111.245V73.56H109.455C108.949 73.56 108.595 73.65 108.395 73.83C108.202 74.01 108.105 74.2333 108.105 74.5C108.105 74.8 108.222 75.04 108.455 75.22C108.689 75.4 109.015 75.49 109.435 75.49C109.835 75.49 110.179 75.4 110.465 75.22C110.759 75.0333 110.972 74.7667 111.105 74.42L111.265 74.91C111.132 75.2567 110.899 75.5333 110.565 75.74C110.239 75.9467 109.825 76.05 109.325 76.05ZM113.744 76V70.75H114.424V72.18L114.354 71.93C114.501 71.53 114.747 71.2267 115.094 71.02C115.441 70.8067 115.871 70.7 116.384 70.7V71.39C116.357 71.39 116.331 71.39 116.304 71.39C116.277 71.3833 116.251 71.38 116.224 71.38C115.671 71.38 115.237 71.55 114.924 71.89C114.611 72.2233 114.454 72.7 114.454 73.32V76H113.744ZM119.811 76.05C119.291 76.05 118.824 75.9367 118.411 75.71C118.004 75.4767 117.684 75.16 117.451 74.76C117.217 74.3533 117.101 73.89 117.101 73.37C117.101 72.8433 117.217 72.38 117.451 71.98C117.684 71.58 118.004 71.2667 118.411 71.04C118.824 70.8133 119.291 70.7 119.811 70.7C120.257 70.7 120.661 70.7867 121.021 70.96C121.381 71.1333 121.664 71.3933 121.871 71.74L121.341 72.1C121.161 71.8333 120.937 71.6367 120.671 71.51C120.404 71.3833 120.114 71.32 119.801 71.32C119.427 71.32 119.091 71.4067 118.791 71.58C118.491 71.7467 118.254 71.9833 118.081 72.29C117.907 72.5967 117.821 72.9567 117.821 73.37C117.821 73.7833 117.907 74.1433 118.081 74.45C118.254 74.7567 118.491 74.9967 118.791 75.17C119.091 75.3367 119.427 75.42 119.801 75.42C120.114 75.42 120.404 75.3567 120.671 75.23C120.937 75.1033 121.161 74.91 121.341 74.65L121.871 75.01C121.664 75.35 121.381 75.61 121.021 75.79C120.661 75.9633 120.257 76.05 119.811 76.05ZM125.408 76.05C124.861 76.05 124.381 75.9367 123.968 75.71C123.554 75.4767 123.231 75.16 122.998 74.76C122.764 74.3533 122.648 73.89 122.648 73.37C122.648 72.85 122.758 72.39 122.978 71.99C123.204 71.59 123.511 71.2767 123.898 71.05C124.291 70.8167 124.731 70.7 125.218 70.7C125.711 70.7 126.148 70.8133 126.528 71.04C126.914 71.26 127.218 71.5733 127.438 71.98C127.658 72.38 127.768 72.8433 127.768 73.37C127.768 73.4033 127.764 73.44 127.758 73.48C127.758 73.5133 127.758 73.55 127.758 73.59H123.188V73.06H127.378L127.098 73.27C127.098 72.89 127.014 72.5533 126.848 72.26C126.688 71.96 126.468 71.7267 126.188 71.56C125.908 71.3933 125.584 71.31 125.218 71.31C124.858 71.31 124.534 71.3933 124.248 71.56C123.961 71.7267 123.738 71.96 123.578 72.26C123.418 72.56 123.338 72.9033 123.338 73.29V73.4C123.338 73.8 123.424 74.1533 123.598 74.46C123.778 74.76 124.024 74.9967 124.338 75.17C124.658 75.3367 125.021 75.42 125.428 75.42C125.748 75.42 126.044 75.3633 126.318 75.25C126.598 75.1367 126.838 74.9633 127.038 74.73L127.438 75.19C127.204 75.47 126.911 75.6833 126.558 75.83C126.211 75.9767 125.828 76.05 125.408 76.05ZM129.213 76V68.58H129.923V76H129.213ZM134.128 76.05C133.582 76.05 133.102 75.9367 132.688 75.71C132.275 75.4767 131.952 75.16 131.718 74.76C131.485 74.3533 131.368 73.89 131.368 73.37C131.368 72.85 131.478 72.39 131.698 71.99C131.925 71.59 132.232 71.2767 132.618 71.05C133.012 70.8167 133.452 70.7 133.938 70.7C134.432 70.7 134.868 70.8133 135.248 71.04C135.635 71.26 135.938 71.5733 136.158 71.98C136.378 72.38 136.488 72.8433 136.488 73.37C136.488 73.4033 136.485 73.44 136.478 73.48C136.478 73.5133 136.478 73.55 136.478 73.59H131.908V73.06H136.098L135.818 73.27C135.818 72.89 135.735 72.5533 135.568 72.26C135.408 71.96 135.188 71.7267 134.908 71.56C134.628 71.3933 134.305 71.31 133.938 71.31C133.578 71.31 133.255 71.3933 132.968 71.56C132.682 71.7267 132.458 71.96 132.298 72.26C132.138 72.56 132.058 72.9033 132.058 73.29V73.4C132.058 73.8 132.145 74.1533 132.318 74.46C132.498 74.76 132.745 74.9967 133.058 75.17C133.378 75.3367 133.742 75.42 134.148 75.42C134.468 75.42 134.765 75.3633 135.038 75.25C135.318 75.1367 135.558 74.9633 135.758 74.73L136.158 75.19C135.925 75.47 135.632 75.6833 135.278 75.83C134.932 75.9767 134.548 76.05 134.128 76.05ZM144.493 70.7C144.92 70.7 145.29 70.7833 145.603 70.95C145.923 71.11 146.17 71.3567 146.343 71.69C146.523 72.0233 146.613 72.4433 146.613 72.95V76H145.903V73.02C145.903 72.4667 145.77 72.05 145.503 71.77C145.243 71.4833 144.873 71.34 144.393 71.34C144.033 71.34 143.72 71.4167 143.453 71.57C143.193 71.7167 142.99 71.9333 142.843 72.22C142.703 72.5 142.633 72.84 142.633 73.24V76H141.923V73.02C141.923 72.4667 141.79 72.05 141.523 71.77C141.257 71.4833 140.883 71.34 140.403 71.34C140.05 71.34 139.74 71.4167 139.473 71.57C139.207 71.7167 139 71.9333 138.853 72.22C138.713 72.5 138.643 72.84 138.643 73.24V76H137.933V70.75H138.613V72.17L138.503 71.92C138.663 71.54 138.92 71.2433 139.273 71.03C139.633 70.81 140.057 70.7 140.543 70.7C141.057 70.7 141.493 70.83 141.853 71.09C142.213 71.3433 142.447 71.7267 142.553 72.24L142.273 72.13C142.427 71.7033 142.697 71.36 143.083 71.1C143.477 70.8333 143.947 70.7 144.493 70.7ZM150.769 76.05C150.222 76.05 149.742 75.9367 149.329 75.71C148.915 75.4767 148.592 75.16 148.359 74.76C148.125 74.3533 148.009 73.89 148.009 73.37C148.009 72.85 148.119 72.39 148.339 71.99C148.565 71.59 148.872 71.2767 149.259 71.05C149.652 70.8167 150.092 70.7 150.579 70.7C151.072 70.7 151.509 70.8133 151.889 71.04C152.275 71.26 152.579 71.5733 152.799 71.98C153.019 72.38 153.129 72.8433 153.129 73.37C153.129 73.4033 153.125 73.44 153.119 73.48C153.119 73.5133 153.119 73.55 153.119 73.59H148.549V73.06H152.739L152.459 73.27C152.459 72.89 152.375 72.5533 152.209 72.26C152.049 71.96 151.829 71.7267 151.549 71.56C151.269 71.3933 150.945 71.31 150.579 71.31C150.219 71.31 149.895 71.3933 149.609 71.56C149.322 71.7267 149.099 71.96 148.939 72.26C148.779 72.56 148.699 72.9033 148.699 73.29V73.4C148.699 73.8 148.785 74.1533 148.959 74.46C149.139 74.76 149.385 74.9967 149.699 75.17C150.019 75.3367 150.382 75.42 150.789 75.42C151.109 75.42 151.405 75.3633 151.679 75.25C151.959 75.1367 152.199 74.9633 152.399 74.73L152.799 75.19C152.565 75.47 152.272 75.6833 151.919 75.83C151.572 75.9767 151.189 76.05 150.769 76.05ZM157.254 70.7C157.681 70.7 158.054 70.7833 158.374 70.95C158.701 71.11 158.954 71.3567 159.134 71.69C159.321 72.0233 159.414 72.4433 159.414 72.95V76H158.704V73.02C158.704 72.4667 158.564 72.05 158.284 71.77C158.011 71.4833 157.624 71.34 157.124 71.34C156.751 71.34 156.424 71.4167 156.144 71.57C155.871 71.7167 155.657 71.9333 155.504 72.22C155.357 72.5 155.284 72.84 155.284 73.24V76H154.574V70.75H155.254V72.19L155.144 71.92C155.311 71.54 155.577 71.2433 155.944 71.03C156.311 70.81 156.747 70.7 157.254 70.7ZM162.992 76.05C162.498 76.05 162.118 75.9167 161.852 75.65C161.585 75.3833 161.452 75.0067 161.452 74.52V69.59H162.162V74.48C162.162 74.7867 162.238 75.0233 162.392 75.19C162.552 75.3567 162.778 75.44 163.072 75.44C163.385 75.44 163.645 75.35 163.852 75.17L164.102 75.68C163.962 75.8067 163.792 75.9 163.592 75.96C163.398 76.02 163.198 76.05 162.992 76.05ZM160.512 71.34V70.75H163.762V71.34H160.512Z" fill="#FF8800"/>
            <defs>
            <clipPath id="clip0_0_1">
            <rect width="175" height="60" fill="white"/>
            </clipPath>
            </defs>
            </svg>