<svg width="23" height="22" viewBox="0 0 23 22" fill="none" xmlns="http://www.w3.org/2000/svg">
    <path fill-rule="evenodd" clip-rule="evenodd" d="M18.3022 9.7515C14.5954 7.64592 8.48125 7.4525 4.94212 8.48008C4.37383 8.64508 3.77296 8.338 3.60142 7.79442C3.42892 7.25083 3.749 6.67608 4.31825 6.51108C8.38062 5.33133 15.133 5.55958 19.4005 7.98233C19.9113 8.27292 20.079 8.90358 19.7762 9.39217C19.4733 9.88075 18.813 10.0421 18.3022 9.7515ZM18.1815 12.8709C17.9208 13.2743 17.3698 13.4008 16.9481 13.1533C13.8575 11.3364 9.14538 10.8093 5.48838 11.8708C5.01496 12.0083 4.51375 11.7526 4.37 11.2998C4.22721 10.846 4.49458 10.3684 4.968 10.23C9.14442 9.01817 14.3367 9.60483 17.8863 11.6921C18.308 11.9396 18.4403 12.4685 18.1815 12.8709ZM16.7737 15.8657C16.5677 16.1902 16.1259 16.2919 15.7885 16.0939C13.088 14.5154 9.68875 14.1588 5.68579 15.0333C5.30054 15.1177 4.91625 14.8867 4.82808 14.5182C4.73992 14.1488 4.98046 13.7812 5.36667 13.6968C9.74721 12.7389 13.5048 13.1514 16.536 14.9233C16.8743 15.1204 16.9807 15.543 16.7737 15.8657ZM11.5 0C5.14913 0 0 4.92525 0 11C0 17.0757 5.14913 22 11.5 22C17.8518 22 23 17.0757 23 11C23 4.92525 17.8518 0 11.5 0Z" fill="black"/>
    </svg>
    